<svg width="16" height="16" viewBox="0 0 16 16" fill="none" xmlns="http://www.w3.org/2000/svg">
<path fill-rule="evenodd" clip-rule="evenodd" d="M8.17354 2.79766L7.78437 3.24819C7.46344 3.61972 6.90209 3.66074 6.53056 3.33981C6.15903 3.01888 6.11801 2.45753 6.43894 2.086L6.85052 1.60953C6.86466 1.59315 6.8794 1.5773 6.8947 1.562C7.89508 0.561769 9.25182 -0.000100022 10.6665 1.33555e-08C12.0811 0.000100049 13.4378 0.562161 14.438 1.56253C15.4382 2.56291 16.0001 3.91965 16 5.33429C15.9999 6.74894 15.4378 8.1056 14.4375 9.10583C14.4228 9.12049 14.4076 9.13463 14.392 9.14823L13.9173 9.5607C13.5467 9.88271 12.9852 9.84333 12.6632 9.47274C12.3412 9.10214 12.3806 8.54068 12.7512 8.21866L13.2011 7.82774C13.8551 7.16296 14.2221 6.26749 14.2221 5.33417C14.2222 4.39105 13.8476 3.48653 13.1808 2.8196C12.5139 2.15267 11.6095 1.77795 10.6663 1.77788C9.73344 1.77782 8.83832 2.14433 8.17354 2.79766ZM11.296 4.70534C11.6431 5.05249 11.6431 5.61534 11.296 5.96249L5.96235 11.2961C5.61519 11.6433 5.05235 11.6433 4.7052 11.2961C4.35804 10.949 4.35804 10.3861 4.7052 10.039L10.0388 4.70534C10.386 4.35819 10.9488 4.35819 11.296 4.70534ZM3.3331 6.52319C3.65818 6.8911 3.62346 7.45287 3.25555 7.77795L2.80948 8.1721C2.48523 8.49701 2.22739 8.8821 2.05048 9.30583C1.87053 9.73681 1.77788 10.1992 1.77788 10.6662C1.77788 11.1333 1.87053 11.5957 2.05048 12.0266C2.23042 12.4576 2.49407 12.8486 2.82617 13.177L2.82619 13.177C3.50316 13.8464 4.41682 14.2219 5.36888 14.2219C6.29964 14.2219 7.19369 13.863 7.86576 13.2215L8.17614 12.804C8.46906 12.41 9.02591 12.3281 9.4199 12.621C9.8139 12.9139 9.89584 13.4708 9.60293 13.8648L9.25002 14.3394C9.22318 14.3755 9.19365 14.4095 9.16167 14.4412C8.15188 15.4397 6.78903 15.9998 5.36888 15.9998C3.94875 15.9998 2.58592 15.4397 1.57612 14.4412C1.0768 13.9475 0.680396 13.3596 0.409851 12.7116C0.139306 12.0636 0 11.3684 0 10.6662C0 9.96404 0.139306 9.26882 0.409851 8.62084C0.680396 7.97286 1.0768 7.38499 1.57612 6.89127C1.58794 6.87958 1.60008 6.86823 1.61254 6.85723L2.07834 6.44565C2.44625 6.12057 3.00802 6.15529 3.3331 6.52319Z" fill="#6B7280"/>
</svg>
