<svg width="23" height="16" viewBox="0 0 23 16" fill="none" xmlns="http://www.w3.org/2000/svg">
<path d="M11.2077 0H20.6574C20.9261 0 21.1948 0.0447853 21.4188 0.134356C21.5979 0.223927 21.6427 0.268712 21.4635 0.403068C20.6126 1.2092 19.7617 2.01534 18.866 2.82148L12.193 9.13621C11.7003 9.71842 10.8942 9.7632 10.312 9.31535L10.1329 9.13621L0.95634 0.403068C0.807055 0.28364 0.836912 0.179141 1.04591 0.0895706C1.26984 0.0447853 1.44898 0 1.67291 0C1.67291 0 11.2122 0 11.2077 0Z" fill="#6B7280"/>
<path d="M21.5529 15.8093C21.2842 15.9436 21.0155 16.0332 20.702 15.9884H1.71304C1.44433 15.9884 1.2204 15.9436 0.996474 15.8541C0.817332 15.7645 0.817332 15.7197 0.951688 15.5854L3.23574 13.4357C4.80323 11.9578 6.37071 10.4798 7.9382 8.95714C8.07255 8.82278 8.16213 8.82278 8.29648 8.95714C8.87869 9.53934 9.4609 10.0768 10.0879 10.659C10.6701 11.3308 11.7002 11.3755 12.3272 10.7485C12.3719 10.7038 12.4167 10.7038 12.4167 10.659C12.9989 10.0768 13.6259 9.53934 14.2081 8.95714C14.2977 8.86756 14.3425 8.86756 14.4769 8.95714C16.8057 11.1964 19.1793 13.4357 21.5529 15.6749C21.5082 15.7645 21.5529 15.7645 21.5529 15.8093ZM0.100767 1.16449C0.906903 2.10498 1.80261 2.86633 2.69832 3.71725C4.13145 5.1056 5.60936 6.49394 7.04249 7.88229C7.17685 8.01664 7.17685 8.10621 7.04249 8.19578C4.8928 10.2111 2.7431 12.2712 0.593406 14.3314C0.369479 14.5105 0.235123 14.7344 0.100767 14.9584C-0.033589 14.4657 -0.033589 1.52277 0.100767 1.16449ZM22.3591 1.16449C22.4039 5.73259 22.4039 10.3007 22.3591 14.8688C21.956 14.4209 21.5529 13.9731 21.0603 13.6148C19.1793 11.8234 17.2535 9.9872 15.3726 8.19578C15.2382 8.06143 15.2382 7.97186 15.3726 7.8375C17.5223 5.77738 19.672 3.76204 21.8217 1.70191C22.0008 1.56756 22.1799 1.34363 22.3591 1.16449Z" fill="#6B7280"/>
</svg>
