<svg width="17" height="16" viewBox="0 0 17 16" fill="none" xmlns="http://www.w3.org/2000/svg">
<path d="M15.6314 9.89016C15.5786 9.77328 15.5625 9.64199 15.5898 9.5155C16.0461 6.8785 15.3304 4.60335 13.4379 2.71886C12.2835 1.57568 10.7865 0.842379 9.17578 0.632635C8.46329 0.528564 7.738 0.530165 7.02551 0.637439C6.87821 0.664657 6.72611 0.637439 6.59642 0.562187C4.5262 -0.587398 1.91962 0.0786568 0.654759 2.08002C-0.174608 3.41053 -0.219438 5.08688 0.53948 6.45902C0.584311 6.53427 0.600322 6.62553 0.58271 6.71199C-0.0753397 10.2328 1.80434 13.5391 5.02414 14.8904C6.37707 15.462 7.86288 15.6397 9.31187 15.4027C9.42395 15.3819 9.54083 15.3979 9.6417 15.4508C10.3766 15.8494 11.2076 16.0384 12.0417 15.9935C12.647 15.9487 13.233 15.7646 13.7549 15.4588C14.9269 14.7911 15.7387 13.6319 15.9612 12.303C16.0893 11.4848 15.9756 10.6459 15.633 9.89176L15.6314 9.89016ZM11.9649 10.2296C11.7824 11.1999 11.1483 11.8179 10.2613 12.1525C8.97404 12.6552 7.54587 12.6568 6.25699 12.1605C5.52208 11.8883 4.93448 11.3215 4.63668 10.5962C4.56143 10.4185 4.5166 10.228 4.50539 10.0359C4.47337 9.71404 4.64469 9.40663 4.93608 9.26733C5.2451 9.10723 5.62135 9.14725 5.88874 9.3698C6.01362 9.48829 6.11449 9.63078 6.18654 9.78769C6.2794 9.97502 6.36586 10.1623 6.46833 10.3449C6.73251 10.8252 7.22085 11.1422 7.76842 11.1838C8.38484 11.2543 8.98525 11.2127 9.53763 10.8844C10.0228 10.5962 10.2309 10.1159 10.0724 9.60997C9.96672 9.32177 9.74417 9.09121 9.46078 8.97594C9.02528 8.78701 8.57057 8.65091 8.10305 8.57086C7.35694 8.39794 6.61083 8.22983 5.91916 7.88079C4.93448 7.38605 4.49098 6.44301 4.75836 5.37828C4.89766 4.85312 5.23869 4.40161 5.70621 4.12462C6.31303 3.76117 6.99989 3.55623 7.70598 3.52901C7.8821 3.5146 8.05982 3.5114 8.1783 3.505C9.03328 3.5114 9.80821 3.62348 10.5063 4.04136C10.993 4.33276 11.3837 4.71062 11.5502 5.27581C11.6735 5.59763 11.5966 5.95947 11.3549 6.20444C11.0314 6.53267 10.5031 6.53427 10.1749 6.21085C10.1284 6.16441 10.0868 6.11158 10.0516 6.05554C9.92349 5.86501 9.80981 5.66487 9.68173 5.47594C9.44957 5.10289 9.0621 4.85312 8.625 4.80028C8.05181 4.72983 7.48983 4.73304 6.96947 5.02924C6.72451 5.14452 6.54358 5.36227 6.47794 5.62485C6.40589 5.97068 6.54358 6.24127 6.8558 6.44781C7.24806 6.70719 7.69637 6.80165 8.14147 6.91052C8.81874 7.05462 9.48799 7.23395 10.1476 7.44849C10.6488 7.59899 11.1067 7.87118 11.4766 8.24263C11.9969 8.81422 12.1042 9.50109 11.9665 10.2296H11.9649Z" fill="#6B7280"/>
</svg>
