<svg width="16" height="16" viewBox="0 0 16 16" fill="none" xmlns="http://www.w3.org/2000/svg">
<path d="M8.06325 0C3.76237 0.00722837 0.278292 3.50215 0.289135 7.80664C0.296363 9.21256 0.672239 10.5896 1.377 11.8075L0 16L4.31895 14.623C8.11023 16.6975 12.8665 15.3061 14.941 11.5112C15.5663 10.3655 15.8988 9.08245 15.9024 7.77411C15.8699 3.47323 12.3677 0 8.06325 0ZM11.9087 10.8136C11.6341 11.2726 11.1751 11.5907 10.6474 11.6847C8.99932 12.0389 7.25367 10.7486 6.18749 9.64988C5.35261 8.82584 4.70206 7.83555 4.28281 6.74046C3.92862 5.7068 4.41292 3.63949 5.86582 3.96115C6.22001 4.0262 6.28507 4.34787 6.38265 4.64061C6.54529 5.05986 6.67179 5.44658 6.83443 5.86944C6.86695 5.97425 6.86695 6.08629 6.83443 6.1911C6.70431 6.48385 6.41518 6.6754 6.22001 6.93562C5.92726 7.3874 7.0585 8.48611 7.38378 8.77886C7.80303 9.16558 8.44997 9.74746 9.03185 9.81251C9.35351 9.84504 9.77637 9.1981 9.9354 8.97041C10.0655 8.80777 10.1631 8.77524 10.3221 8.8403C10.8715 9.06799 11.3883 9.38965 11.9377 9.6824C12.0858 9.72939 12.1726 9.8848 12.1328 10.0366C12.1437 10.3113 12.0642 10.586 11.9051 10.8136" fill="#6B7280"/>
</svg>
